<?xml version="1.0" encoding="UTF-8"?>
<svg xmlns="http://www.w3.org/2000/svg" xmlns:xlink="http://www.w3.org/1999/xlink" width="59pt" height="54pt" viewBox="0 0 49 44" version="1.1">
<g id="surface1">
<path style=" stroke:none;fill-rule:nonzero;fill:rgb(0%,0%,0%);fill-opacity:1;" d="M 25.957031 3.566406 C 25.15625 5.351562 24.503906 6.816406 24.507812 6.820312 C 24.53125 6.835938 26.695312 7.390625 26.734375 7.390625 C 26.757812 7.390625 27.308594 6.191406 27.96875 4.726562 C 28.625 3.261719 29.167969 2.054688 29.175781 2.046875 C 29.183594 2.035156 30.128906 2.28125 31.792969 2.71875 C 31.921875 2.757812 31.945312 2.789062 32.078125 3.089844 C 32.160156 3.269531 32.214844 3.445312 32.203125 3.476562 C 32.191406 3.503906 31.710938 4.578125 31.132812 5.867188 C 30.554688 7.152344 30.082031 8.21875 30.082031 8.242188 C 30.082031 8.269531 30.433594 8.378906 30.871094 8.488281 C 31.300781 8.601562 31.796875 8.730469 31.96875 8.777344 C 32.175781 8.832031 32.304688 8.847656 32.324219 8.824219 C 32.34375 8.800781 32.84375 7.710938 33.433594 6.394531 L 34.5 4.007812 L 34.027344 2.972656 L 33.558594 1.933594 L 31.5 1.394531 C 30.371094 1.097656 28.984375 0.734375 28.425781 0.589844 L 27.414062 0.324219 Z M 25.957031 3.566406 "/>
<path style=" stroke:none;fill-rule:nonzero;fill:rgb(0%,0%,0%);fill-opacity:1;" d="M 18.257812 1.160156 L 15.253906 1.953125 L 15.261719 2.066406 C 15.402344 4.078125 15.800781 8.996094 15.820312 9.019531 C 15.839844 9.042969 16.300781 8.941406 16.949219 8.769531 C 17.554688 8.609375 18.050781 8.480469 18.054688 8.476562 C 18.0625 8.472656 17.960938 7.152344 17.832031 5.542969 C 17.707031 3.929688 17.609375 2.605469 17.621094 2.59375 C 17.632812 2.582031 18.25 2.414062 18.996094 2.21875 L 20.347656 1.863281 L 20.621094 2.0625 C 20.769531 2.175781 20.90625 2.277344 20.917969 2.289062 C 20.929688 2.304688 21.035156 3.492188 21.148438 4.933594 C 21.257812 6.371094 21.363281 7.5625 21.375 7.574219 C 21.394531 7.59375 23.5625 7.050781 23.601562 7.011719 C 23.617188 7 23.222656 1.871094 23.203125 1.75 C 23.183594 1.652344 21.4375 0.351562 21.332031 0.359375 C 21.292969 0.363281 19.910156 0.71875 18.257812 1.160156 Z M 18.257812 1.160156 "/>
<path style=" stroke:none;fill-rule:nonzero;fill:rgb(0%,0%,0%);fill-opacity:1;" d="M 8.917969 5.976562 C 7.667969 7.183594 6.644531 8.203125 6.636719 8.242188 C 6.632812 8.285156 6.566406 8.898438 6.492188 9.605469 L 6.363281 10.894531 L 7.796875 13.082031 C 8.585938 14.285156 9.25 15.289062 9.265625 15.304688 C 9.304688 15.351562 12.640625 12.109375 12.609375 12.054688 C 12.59375 12.03125 12.449219 11.800781 12.28125 11.546875 L 11.976562 11.082031 L 11.746094 11.289062 C 11.617188 11.40625 11.242188 11.761719 10.914062 12.085938 C 10.554688 12.429688 10.296875 12.65625 10.28125 12.632812 C 10.265625 12.609375 9.761719 11.839844 9.15625 10.921875 L 8.0625 9.253906 L 8.109375 8.820312 L 8.160156 8.386719 L 9.183594 7.398438 L 10.207031 6.40625 L 11.8125 8.84375 C 12.691406 10.1875 13.429688 11.28125 13.445312 11.28125 C 13.484375 11.28125 15.117188 9.714844 15.117188 9.675781 C 15.117188 9.621094 11.257812 3.777344 11.222656 3.777344 C 11.203125 3.777344 10.164062 4.765625 8.917969 5.976562 Z M 8.917969 5.976562 "/>
<path style=" stroke:none;fill-rule:nonzero;fill:rgb(0%,0%,0%);fill-opacity:1;" d="M 35.316406 7.53125 C 34.175781 8.386719 33.226562 9.101562 33.210938 9.117188 C 33.1875 9.140625 36.0625 11.972656 36.4375 12.289062 L 36.539062 12.378906 L 36.984375 12.050781 C 37.222656 11.867188 37.4375 11.703125 37.457031 11.683594 C 37.476562 11.664062 37.300781 11.464844 37.050781 11.21875 C 36.8125 10.984375 36.445312 10.621094 36.234375 10.417969 L 35.855469 10.042969 L 37.457031 8.84375 C 38.632812 7.964844 39.089844 7.644531 39.183594 7.632812 C 39.253906 7.621094 39.460938 7.628906 39.640625 7.648438 L 39.96875 7.675781 L 40.992188 8.660156 L 42.015625 9.652344 L 41.542969 10.003906 C 41.277344 10.199219 40.222656 10.988281 39.195312 11.753906 L 37.324219 13.152344 L 38.019531 13.832031 C 38.398438 14.203125 38.78125 14.570312 38.871094 14.648438 L 39.035156 14.785156 L 41.84375 12.691406 C 43.390625 11.539062 44.65625 10.574219 44.648438 10.550781 C 44.644531 10.519531 40.667969 6.65625 40.1875 6.214844 C 40.089844 6.125 40.050781 6.121094 38.914062 6.050781 C 38.265625 6.011719 37.660156 5.980469 37.5625 5.980469 C 37.394531 5.980469 37.324219 6.03125 35.316406 7.53125 Z M 35.316406 7.53125 "/>
<path style=" stroke:none;fill-rule:nonzero;fill:rgb(0%,0%,0%);fill-opacity:1;" d="M 27.15625 13.144531 C 25.308594 14.382812 24.074219 15.378906 22.78125 16.667969 C 20.453125 18.988281 19.246094 21.1875 18.890625 23.765625 C 18.804688 24.390625 18.804688 25.742188 18.894531 26.398438 C 18.964844 26.917969 19.140625 27.816406 19.246094 28.164062 C 19.277344 28.269531 19.304688 28.375 19.304688 28.398438 C 19.304688 28.488281 17.902344 28.898438 16.765625 29.148438 C 16.125 29.285156 15.417969 29.40625 14.671875 29.503906 L 14.246094 29.558594 L 15.058594 29.542969 C 16.179688 29.523438 17.128906 29.394531 18.601562 29.066406 C 19.035156 28.96875 19.410156 28.894531 19.4375 28.90625 C 19.460938 28.917969 19.515625 29.03125 19.554688 29.15625 C 19.675781 29.558594 20.082031 30.542969 20.390625 31.203125 L 20.691406 31.839844 L 20.515625 31.898438 C 19.457031 32.246094 17.609375 32.636719 16.515625 32.753906 C 15.816406 32.828125 15.867188 32.875 16.609375 32.847656 C 17.746094 32.808594 18.921875 32.652344 20.109375 32.394531 C 20.496094 32.308594 20.835938 32.238281 20.863281 32.238281 C 20.890625 32.238281 20.964844 32.332031 21.027344 32.445312 C 21.53125 33.363281 22.796875 35.355469 22.820312 35.277344 C 22.832031 35.246094 22.078125 32.378906 21.960938 32 C 21.945312 31.957031 22.015625 31.917969 22.261719 31.847656 C 22.4375 31.796875 22.851562 31.65625 23.183594 31.539062 C 25.496094 30.714844 27.175781 29.875 28.472656 28.878906 C 28.910156 28.546875 29.578125 27.867188 29.785156 27.535156 C 30.238281 26.824219 30.234375 26.167969 29.773438 25.714844 C 29.382812 25.332031 28.789062 25.113281 27.648438 24.941406 L 27.519531 24.921875 L 27.710938 24.707031 C 28.15625 24.21875 28.339844 23.828125 28.367188 23.34375 C 28.382812 23.03125 28.375 22.980469 28.285156 22.785156 C 27.964844 22.125 26.933594 21.707031 25.488281 21.636719 C 25.234375 21.625 24.976562 21.609375 24.917969 21.601562 C 24.730469 21.570312 24.800781 21.644531 25.035156 21.71875 C 25.605469 21.898438 26.140625 22.277344 26.339844 22.648438 C 26.445312 22.839844 26.457031 22.890625 26.457031 23.234375 C 26.457031 23.542969 26.441406 23.648438 26.363281 23.824219 C 25.917969 24.859375 24.464844 26.117188 22.621094 27.066406 C 22.183594 27.292969 21.078125 27.792969 21.058594 27.777344 C 21.03125 27.75 20.933594 26.828125 20.894531 26.222656 C 20.730469 23.777344 21.246094 21.304688 22.375 19.144531 C 22.84375 18.246094 23.683594 16.996094 24.375 16.15625 C 25.121094 15.261719 26.140625 14.230469 27.195312 13.316406 C 28.097656 12.53125 28.09375 12.507812 27.15625 13.144531 Z M 27.5 25.332031 C 28.3125 25.855469 28.441406 26.652344 27.867188 27.542969 C 27.636719 27.910156 26.910156 28.65625 26.457031 29 C 25.296875 29.882812 24.199219 30.496094 22.621094 31.132812 C 21.9375 31.40625 21.839844 31.4375 21.816406 31.378906 C 21.722656 31.160156 21.167969 28.628906 21.167969 28.429688 C 21.167969 28.378906 21.320312 28.308594 21.710938 28.175781 C 22.015625 28.070312 22.351562 27.945312 22.464844 27.890625 C 22.582031 27.839844 22.683594 27.792969 22.695312 27.792969 C 22.753906 27.792969 23.910156 27.269531 24.5 26.96875 C 25.503906 26.464844 26.316406 25.949219 26.953125 25.421875 C 27.101562 25.296875 27.238281 25.199219 27.257812 25.199219 C 27.28125 25.199219 27.386719 25.257812 27.5 25.332031 Z M 27.5 25.332031 "/>
<path style=" stroke:none;fill-rule:nonzero;fill:rgb(0%,0%,0%);fill-opacity:1;" d="M 2.703125 13 C 2.695312 13.039062 2.273438 14.421875 1.765625 16.070312 L 0.84375 19.066406 L 1.367188 20.316406 L 1.890625 21.5625 L 4.210938 22.773438 C 5.484375 23.4375 6.542969 23.976562 6.566406 23.96875 C 6.601562 23.953125 8.960938 16.328125 8.960938 16.21875 C 8.964844 16.15625 7.945312 15.632812 7.910156 15.671875 C 7.894531 15.691406 7.503906 16.933594 7.050781 18.425781 C 6.59375 19.925781 6.207031 21.152344 6.183594 21.152344 C 6.164062 21.152344 5.351562 20.734375 4.378906 20.230469 L 2.617188 19.3125 L 2.453125 18.925781 C 2.359375 18.71875 2.289062 18.519531 2.289062 18.488281 C 2.289062 18.425781 3.089844 15.804688 3.117188 15.777344 C 3.128906 15.765625 3.351562 15.875 3.625 16.019531 C 3.890625 16.164062 4.125 16.273438 4.140625 16.261719 C 4.152344 16.246094 4.316406 15.742188 4.5 15.144531 C 4.804688 14.15625 4.832031 14.050781 4.773438 14.003906 C 4.710938 13.953125 2.777344 12.933594 2.742188 12.933594 C 2.730469 12.933594 2.714844 12.964844 2.703125 13 Z M 2.703125 13 "/>
<path style=" stroke:none;fill-rule:nonzero;fill:rgb(0%,0%,0%);fill-opacity:1;" d="M 45.96875 14.621094 C 45.695312 14.65625 45.46875 14.695312 45.457031 14.703125 C 45.449219 14.714844 45.632812 15.339844 45.863281 16.097656 C 46.09375 16.855469 46.277344 17.476562 46.273438 17.476562 C 46.269531 17.480469 44.976562 17.644531 43.398438 17.847656 C 41.820312 18.050781 40.527344 18.21875 40.519531 18.222656 C 40.503906 18.238281 41.171875 20.417969 41.203125 20.449219 C 41.21875 20.464844 42.519531 20.3125 44.097656 20.109375 C 45.675781 19.90625 46.964844 19.742188 46.972656 19.746094 C 46.976562 19.753906 47.167969 20.367188 47.394531 21.117188 C 47.625 21.859375 47.820312 22.480469 47.832031 22.492188 C 47.84375 22.507812 48.09375 22.484375 48.378906 22.445312 C 48.667969 22.40625 48.925781 22.371094 48.957031 22.371094 C 48.992188 22.371094 49.003906 22.339844 48.988281 22.257812 C 48.96875 22.160156 46.890625 15.351562 46.707031 14.789062 C 46.617188 14.507812 46.691406 14.527344 45.96875 14.621094 Z M 45.96875 14.621094 "/>
</g>
</svg>
